<svg height="480pt" viewBox="0 -44 480.09365 480" width="480pt" xmlns="http://www.w3.org/2000/svg"><path d="m474.414062 200.390625-34.328124-10.449219v-77.894531c0-4.417969-3.582032-8-8-8h-48c-4.417969 0-8 3.582031-8 8v58.398437l-80-24.328124v-26.070313h64c3.605468 0 6.769531-2.410156 7.71875-5.890625.953124-3.476562-.542969-7.164062-3.644532-8.996094l-176-104h-.074218s-1.550782-.699218-1.9375-.800781c-.679688-.148437-1.367188-.253906-2.0625-.3125-.691407.0429688-1.375.132813-2.054688.265625-.386719.101562-1.9375.796875-1.945312.796875h-.070313l-176 104c-3.15625 1.816406-4.691406 5.53125-3.734375 9.042969.957031 3.511718 4.164062 5.933594 7.804688 5.894531h64v272h384v-176h16c3.96875.003906 7.335937-2.898437 7.921874-6.824219.582032-3.921875-1.796874-7.679687-5.59375-8.832031zm-82.328124-80.34375h32v65.023437l-32-9.734374zm26.222656 80h-122.222656v-37.199219zm-128.199219-96-98.023437-52.800781v-29.175782l138.738281 81.976563zm-114.023437-81.976563v29.175782l-98.023438 52.800781h-40.710938zm104 353.976563h-192v-259.199219l96-51.695312 96 51.695312zm160 0h-144v-160h144zm0 0"/><path d="m112.085938 304.046875c1.46875 0 2.90625-.40625 4.160156-1.167969 10.207031-6.480468 20.007812-13.589844 29.335937-21.28125 6.996094 2.941406 14.527344 4.382813 22.113281 4.234375 1.445313 0 2.910157 0 4.414063-.121093 23.667969-.980469 45.96875-11.34375 61.976563-28.800782 33.367187-41.085937 28.351562-97.078125 28.121093-99.4375l-.730469-7.480468-7.511718.253906c-2.335938.082031-57.703125 2.328125-91.542969 36.175781-25.199219 25.199219-41.832031 64.167969-29.429687 84.753906-8.019532 6.484375-16.394532 12.515625-25.082032 18.070313-3.03125 1.878906-4.453125 5.539062-3.484375 8.972656s4.09375 5.8125 7.660157 5.828125zm61.648437-106.34375c22.351563-22.351563 57.273437-28.914063 72.800781-30.785156.046875 15.863281-2.527344 52.304687-24.914062 79.890625-13.105469 14.003906-31.226563 22.25-50.398438 22.925781-3.796875.222656-7.609375.0625-11.375-.472656 10.953125-9.933594 21.117188-20.703125 30.398438-32.214844 2.761718-3.449219 2.203125-8.488281-1.246094-11.25-3.453125-2.757813-8.488281-2.199219-11.25 1.25-9.765625 12.050781-20.539062 23.246094-32.207031 33.464844-3.855469-12.609375 7.0625-41.671875 28.199219-62.808594zm0 0"/><path d="m256.085938 344.046875h-144c-4.417969 0-8 3.582031-8 8s3.582031 8 8 8h144c4.417968 0 8-3.582031 8-8s-3.582032-8-8-8zm0 0"/><path d="m320.085938 360.046875h64c4.417968 0 8-3.582031 8-8s-3.582032-8-8-8h-64c-4.417969 0-8 3.582031-8 8s3.582031 8 8 8zm0 0"/><path d="m410.40625 357.726562c.777344.707032 1.671875 1.273438 2.640625 1.679688 1.9375.855469 4.144531.855469 6.078125 0 2.011719-.726562 3.59375-2.308594 4.320312-4.320312.410157-.960938.628907-1.992188.640626-3.039063-.011719-.511719-.066407-1.019531-.167969-1.519531-.066407-.53125-.226563-1.046875-.472657-1.519532-.179687-.511718-.421874-.996093-.71875-1.449218l-.960937-1.191406c-1.894531-1.867188-4.589844-2.675782-7.199219-2.160157-.53125.074219-1.042968.234375-1.519531.480469-.492187.160156-.953125.402344-1.359375.71875-.460938.273438-.890625.597656-1.28125.960938l-.960938 1.191406c-.300781.449218-.542968.9375-.71875 1.449218-.242187.476563-.40625.988282-.480468 1.519532-.09375.5-.144532 1.007812-.160156 1.519531-.027344 1.050781.191406 2.089844.640624 3.039063.40625.96875.976563 1.863281 1.679688 2.640624zm0 0"/></svg>