<svg height="480pt" viewBox="0 -16 480 480" width="480pt" xmlns="http://www.w3.org/2000/svg"><path d="m0 352h208v48h-48v48h160v-48h-48v-48h208v-352h-480zm304 64v16h-128v-16zm-80-16v-48h32v48zm-208-384h396.6875l-42.34375 42.34375 11.3125 11.3125 53.65625-53.65625h17.375l-42.34375 42.34375 11.3125 11.3125 42.34375-42.34375v260.6875h-448zm0 288h448v32h-448zm0 0"/><path d="m240 192c44.183594 0 80-35.816406 80-80s-35.816406-80-80-80-80 35.816406-80 80c.050781 44.160156 35.839844 79.949219 80 80zm0-144c35.347656 0 64 28.652344 64 64s-28.652344 64-64 64-64-28.652344-64-64c.039062-35.328125 28.671875-63.960938 64-64zm0 0"/><path d="m240 152v16c9.832031.003906 19.492188-2.582031 28.007812-7.5l-8.015624-13.84375c-6.082032 3.503906-12.976563 5.34375-19.992188 5.34375zm0 0"/><path d="m280 112c.007812 9.839844-3.621094 19.335938-10.1875 26.664062l11.921875 10.671876c14.726563-16.457032 18.402344-40.035157 9.386719-60.195313-9.011719-20.164063-29.035156-33.140625-51.121094-33.140625v16c22.082031.027344 39.972656 17.917969 40 40zm0 0"/><path d="m64 211.054688v41.890624l41.886719-20.945312zm0 0"/><path d="m216 83.054688v57.890624l57.890625-28.945312zm0 0"/><path d="m136 192h-104v80h104v-16h312v-48h-312zm-16 64h-72v-48h72zm312-32v16h-296v-16zm0 0"/></svg>