<svg height="480pt" viewBox="-20 0 480 480" width="480pt" xmlns="http://www.w3.org/2000/svg"><path d="m408 240h-110.648438c2.730469-19.40625-4.023437-38.945312-18.152343-52.527344-9.039063-7.617187-24.578125-14.3125-48.800781-6.503906-6.253907-21.695312-31.007813-36.96875-62.398438-36.96875-26.8125-.320312-51.105469 15.746094-61.304688 40.542969-7.714843-5.710938-17.097656-8.714844-26.695312-8.542969-36.578125 0-54 19.839844-55.816406 64h-.183594c-9.9375-.035156-18.863281 6.078125-22.417969 15.355469-3.554687 9.28125-1 19.792969 6.417969 26.40625v54.238281c-.757812 47.363281 27.925781 90.238281 72 107.609375v28.390625c0 4.417969 3.582031 8 8 8h32c4.417969 0 8-3.582031 8-8v-16.726562c5.222656.453124 10.542969.726562 16 .726562h144c5.453125 0 10.773438-.273438 16-.726562v16.726562c0 4.417969 3.582031 8 8 8h32c4.417969 0 8-3.582031 8-8v-28.390625c44.070312-17.371094 72.753906-60.246094 72-107.609375v-54.238281c7.417969-6.613281 9.96875-17.125 6.414062-26.40625-3.554687-9.277344-12.476562-15.390625-22.414062-15.355469zm-328-48c12.6875 0 18.710938 6.023438 26.34375 13.65625 2.285156 2.285156 5.726562 2.972656 8.714844 1.734375 2.992187-1.238281 4.941406-4.15625 4.941406-7.390625 0-18.921875 19.710938-40 48-40 23.589844 0 48 12 48 32 0 2.707031 1.367188 5.226562 3.636719 6.703125s5.128906 1.703125 7.601562.609375c12.3125-5.464844 29.527344-9.816406 41.6875.40625 10.394531 10.640625 15.027344 25.632812 12.441407 40.28125h-241.199219c1.984375-44.136719 20.6875-48 39.832031-48zm-56 64h384c4.417969 0 8 3.582031 8 8s-3.582031 8-8 8h-384c-4.417969 0-8-3.582031-8-8s3.582031-8 8-8zm88 208h-16v-14.71875c5.261719 1.546875 10.601562 2.820312 16 3.808594zm224 0h-16v-10.910156c5.394531-.988282 10.734375-2.261719 16-3.808594zm72-128c0 51.769531-37.105469 104-120 104h-144c-82.898438 0-120-52.230469-120-104v-48h384zm0 0"/><path d="m416 67.390625v-27.390625c0-4.417969-3.582031-8-8-8h-16v-24c0-4.417969-3.582031-8-8-8h-32c-4.417969 0-8 3.582031-8 8v24h-16c-4.417969 0-8 3.582031-8 8v27.390625c-14.5625 6.355469-23.980469 20.722656-24 36.609375v8c0 4.417969 3.582031 8 8 8h128c4.417969 0 8-3.582031 8-8v-8c-.023438-15.886719-9.441406-30.253906-24-36.609375zm-56-51.390625h16v16h-16zm-24 32h64v16h-64zm-24 56c0-13.253906 10.742188-24 24-24h64c13.253906 0 24 10.746094 24 24zm0 0"/><path d="m304 184c4.417969 0 8-3.582031 8-8v-32c0-4.417969-3.582031-8-8-8s-8 3.582031-8 8v32c0 4.417969 3.582031 8 8 8zm0 0"/><path d="m336 160c4.417969 0 8-3.582031 8-8v-8c0-4.417969-3.582031-8-8-8s-8 3.582031-8 8v8c0 4.417969 3.582031 8 8 8zm0 0"/><path d="m368 184c4.417969 0 8-3.582031 8-8v-32c0-4.417969-3.582031-8-8-8s-8 3.582031-8 8v32c0 4.417969 3.582031 8 8 8zm0 0"/><path d="m400 160c4.417969 0 8-3.582031 8-8v-8c0-4.417969-3.582031-8-8-8s-8 3.582031-8 8v8c0 4.417969 3.582031 8 8 8zm0 0"/><path d="m328 192c0 4.417969 3.582031 8 8 8s8-3.582031 8-8v-8c0-4.417969-3.582031-8-8-8s-8 3.582031-8 8zm0 0"/><path d="m392 192c0 4.417969 3.582031 8 8 8s8-3.582031 8-8v-8c0-4.417969-3.582031-8-8-8s-8 3.582031-8 8zm0 0"/><path d="m360 216c0 4.417969 3.582031 8 8 8s8-3.582031 8-8v-8c0-4.417969-3.582031-8-8-8s-8 3.582031-8 8zm0 0"/><path d="m432 200c-4.417969 0-8 3.582031-8 8v8c0 4.417969 3.582031 8 8 8s8-3.582031 8-8v-8c0-4.417969-3.582031-8-8-8zm0 0"/><path d="m432 136c-4.417969 0-8 3.582031-8 8v32c0 4.417969 3.582031 8 8 8s8-3.582031 8-8v-32c0-4.417969-3.582031-8-8-8zm0 0"/><path d="m336 408c.960938-.003906 1.914062-.175781 2.816406-.503906 69.871094-26.207032 53.117188-96.726563 52.941406-97.441406-1.097656-4.253907-5.425781-6.828126-9.6875-5.757813-4.265624 1.066406-6.871093 5.375-5.832031 9.648437.585938 2.328126 13.601563 57.320313-43.054687 78.558594-3.632813 1.355469-5.769532 5.113282-5.078125 8.925782.695312 3.8125 4.019531 6.582031 7.894531 6.570312zm0 0"/></svg>